<mxfile host="app.diagrams.net" agent="Mozilla/5.0 (Macintosh; Intel Mac OS X 10_15_7) AppleWebKit/605.1.15 (KHTML, like Gecko) Version/18.4 Safari/605.1.15" version="27.1.6">
  <diagram name="Page-1" id="E7QVo57YuPFPJk3C5-Z0">
    <mxGraphModel dx="1218" dy="699" grid="1" gridSize="10" guides="1" tooltips="1" connect="1" arrows="1" fold="1" page="1" pageScale="1" pageWidth="850" pageHeight="1100" math="0" shadow="0">
      <root>
        <mxCell id="0" />
        <mxCell id="1" parent="0" />
        <mxCell id="eBipc3pvbKF5h4HPWnv3-2" value="control host 1" style="rounded=1;arcSize=10;strokeColor=none;fillColor=#DBDBDB;gradientColor=none;verticalAlign=top;" vertex="1" parent="1">
          <mxGeometry x="290" y="90" width="139.5" height="170" as="geometry" />
        </mxCell>
        <mxCell id="eBipc3pvbKF5h4HPWnv3-1" value="control plane 1" style="aspect=fixed;sketch=0;html=1;dashed=0;whitespace=wrap;verticalLabelPosition=bottom;verticalAlign=top;fillColor=#2875E2;strokeColor=#ffffff;points=[[0.005,0.63,0],[0.1,0.2,0],[0.9,0.2,0],[0.5,0,0],[0.995,0.63,0],[0.72,0.99,0],[0.5,1,0],[0.28,0.99,0]];shape=mxgraph.kubernetes.icon2;prIcon=api" vertex="1" parent="1">
          <mxGeometry x="344.13" y="130" width="31.25" height="30" as="geometry" />
        </mxCell>
        <mxCell id="eBipc3pvbKF5h4HPWnv3-3" value="control plane 2" style="aspect=fixed;sketch=0;html=1;dashed=0;whitespace=wrap;verticalLabelPosition=bottom;verticalAlign=top;fillColor=#2875E2;strokeColor=#ffffff;points=[[0.005,0.63,0],[0.1,0.2,0],[0.9,0.2,0],[0.5,0,0],[0.995,0.63,0],[0.72,0.99,0],[0.5,1,0],[0.28,0.99,0]];shape=mxgraph.kubernetes.icon2;prIcon=api" vertex="1" parent="1">
          <mxGeometry x="344.13" y="190" width="31.25" height="30" as="geometry" />
        </mxCell>
        <mxCell id="eBipc3pvbKF5h4HPWnv3-4" value="control host 2" style="rounded=1;arcSize=10;strokeColor=none;fillColor=#DBDBDB;gradientColor=none;verticalAlign=top;" vertex="1" parent="1">
          <mxGeometry x="286" y="355" width="139.5" height="120" as="geometry" />
        </mxCell>
        <mxCell id="eBipc3pvbKF5h4HPWnv3-5" value="control plane 3" style="aspect=fixed;sketch=0;html=1;dashed=0;whitespace=wrap;verticalLabelPosition=bottom;verticalAlign=top;fillColor=#2875E2;strokeColor=#ffffff;points=[[0.005,0.63,0],[0.1,0.2,0],[0.9,0.2,0],[0.5,0,0],[0.995,0.63,0],[0.72,0.99,0],[0.5,1,0],[0.28,0.99,0]];shape=mxgraph.kubernetes.icon2;prIcon=api" vertex="1" parent="1">
          <mxGeometry x="344.12" y="400" width="31.25" height="30" as="geometry" />
        </mxCell>
        <mxCell id="eBipc3pvbKF5h4HPWnv3-7" value="worker-1" style="aspect=fixed;sketch=0;html=1;dashed=0;whitespace=wrap;verticalLabelPosition=bottom;verticalAlign=top;fillColor=#2875E2;strokeColor=#ffffff;points=[[0.005,0.63,0],[0.1,0.2,0],[0.9,0.2,0],[0.5,0,0],[0.995,0.63,0],[0.72,0.99,0],[0.5,1,0],[0.28,0.99,0]];shape=mxgraph.kubernetes.icon2;prIcon=node" vertex="1" parent="1">
          <mxGeometry x="120" y="80" width="31.25" height="30" as="geometry" />
        </mxCell>
        <mxCell id="eBipc3pvbKF5h4HPWnv3-8" style="rounded=0;orthogonalLoop=1;jettySize=auto;html=1;entryX=0.1;entryY=0.2;entryDx=0;entryDy=0;entryPerimeter=0;endArrow=none;startFill=0;" edge="1" parent="1" source="eBipc3pvbKF5h4HPWnv3-7" target="eBipc3pvbKF5h4HPWnv3-1">
          <mxGeometry relative="1" as="geometry" />
        </mxCell>
        <mxCell id="eBipc3pvbKF5h4HPWnv3-9" value="worker-2" style="aspect=fixed;sketch=0;html=1;dashed=0;whitespace=wrap;verticalLabelPosition=bottom;verticalAlign=top;fillColor=#2875E2;strokeColor=#ffffff;points=[[0.005,0.63,0],[0.1,0.2,0],[0.9,0.2,0],[0.5,0,0],[0.995,0.63,0],[0.72,0.99,0],[0.5,1,0],[0.28,0.99,0]];shape=mxgraph.kubernetes.icon2;prIcon=node" vertex="1" parent="1">
          <mxGeometry x="120" y="160" width="31.25" height="30" as="geometry" />
        </mxCell>
        <mxCell id="eBipc3pvbKF5h4HPWnv3-10" value="worker-3" style="aspect=fixed;sketch=0;html=1;dashed=0;whitespace=wrap;verticalLabelPosition=bottom;verticalAlign=top;fillColor=#2875E2;strokeColor=#ffffff;points=[[0.005,0.63,0],[0.1,0.2,0],[0.9,0.2,0],[0.5,0,0],[0.995,0.63,0],[0.72,0.99,0],[0.5,1,0],[0.28,0.99,0]];shape=mxgraph.kubernetes.icon2;prIcon=node" vertex="1" parent="1">
          <mxGeometry x="120" y="240" width="31.25" height="30" as="geometry" />
        </mxCell>
        <mxCell id="eBipc3pvbKF5h4HPWnv3-11" style="rounded=0;orthogonalLoop=1;jettySize=auto;html=1;entryX=0.1;entryY=0.2;entryDx=0;entryDy=0;entryPerimeter=0;endArrow=none;startFill=0;exitX=0.995;exitY=0.63;exitDx=0;exitDy=0;exitPerimeter=0;" edge="1" parent="1" source="eBipc3pvbKF5h4HPWnv3-9" target="eBipc3pvbKF5h4HPWnv3-3">
          <mxGeometry relative="1" as="geometry">
            <mxPoint x="230" y="160" as="sourcePoint" />
            <mxPoint x="423" y="210" as="targetPoint" />
          </mxGeometry>
        </mxCell>
        <mxCell id="eBipc3pvbKF5h4HPWnv3-12" style="rounded=0;orthogonalLoop=1;jettySize=auto;html=1;entryX=0.005;entryY=0.63;entryDx=0;entryDy=0;entryPerimeter=0;endArrow=none;startFill=0;exitX=0.9;exitY=0.2;exitDx=0;exitDy=0;exitPerimeter=0;" edge="1" parent="1" source="eBipc3pvbKF5h4HPWnv3-10" target="eBipc3pvbKF5h4HPWnv3-3">
          <mxGeometry relative="1" as="geometry">
            <mxPoint x="340" y="280" as="sourcePoint" />
            <mxPoint x="533" y="330" as="targetPoint" />
          </mxGeometry>
        </mxCell>
        <mxCell id="eBipc3pvbKF5h4HPWnv3-13" value="worker-4" style="aspect=fixed;sketch=0;html=1;dashed=0;whitespace=wrap;verticalLabelPosition=bottom;verticalAlign=top;fillColor=#2875E2;strokeColor=#ffffff;points=[[0.005,0.63,0],[0.1,0.2,0],[0.9,0.2,0],[0.5,0,0],[0.995,0.63,0],[0.72,0.99,0],[0.5,1,0],[0.28,0.99,0]];shape=mxgraph.kubernetes.icon2;prIcon=node" vertex="1" parent="1">
          <mxGeometry x="120" y="330" width="31.25" height="30" as="geometry" />
        </mxCell>
        <mxCell id="eBipc3pvbKF5h4HPWnv3-14" value="worker-5" style="aspect=fixed;sketch=0;html=1;dashed=0;whitespace=wrap;verticalLabelPosition=bottom;verticalAlign=top;fillColor=#2875E2;strokeColor=#ffffff;points=[[0.005,0.63,0],[0.1,0.2,0],[0.9,0.2,0],[0.5,0,0],[0.995,0.63,0],[0.72,0.99,0],[0.5,1,0],[0.28,0.99,0]];shape=mxgraph.kubernetes.icon2;prIcon=node" vertex="1" parent="1">
          <mxGeometry x="120" y="400" width="31.25" height="30" as="geometry" />
        </mxCell>
        <mxCell id="eBipc3pvbKF5h4HPWnv3-16" value="worker-6" style="aspect=fixed;sketch=0;html=1;dashed=0;whitespace=wrap;verticalLabelPosition=bottom;verticalAlign=top;fillColor=#2875E2;strokeColor=#ffffff;points=[[0.005,0.63,0],[0.1,0.2,0],[0.9,0.2,0],[0.5,0,0],[0.995,0.63,0],[0.72,0.99,0],[0.5,1,0],[0.28,0.99,0]];shape=mxgraph.kubernetes.icon2;prIcon=node" vertex="1" parent="1">
          <mxGeometry x="120" y="470" width="31.25" height="30" as="geometry" />
        </mxCell>
        <mxCell id="eBipc3pvbKF5h4HPWnv3-17" style="rounded=0;orthogonalLoop=1;jettySize=auto;html=1;entryX=0.1;entryY=0.2;entryDx=0;entryDy=0;entryPerimeter=0;endArrow=none;startFill=0;exitX=0.995;exitY=0.63;exitDx=0;exitDy=0;exitPerimeter=0;" edge="1" parent="1" source="eBipc3pvbKF5h4HPWnv3-13" target="eBipc3pvbKF5h4HPWnv3-5">
          <mxGeometry relative="1" as="geometry">
            <mxPoint x="260" y="200" as="sourcePoint" />
            <mxPoint x="456" y="238" as="targetPoint" />
          </mxGeometry>
        </mxCell>
        <mxCell id="eBipc3pvbKF5h4HPWnv3-18" style="rounded=0;orthogonalLoop=1;jettySize=auto;html=1;entryX=0.005;entryY=0.63;entryDx=0;entryDy=0;entryPerimeter=0;endArrow=none;startFill=0;exitX=0.9;exitY=0.2;exitDx=0;exitDy=0;exitPerimeter=0;" edge="1" parent="1" source="eBipc3pvbKF5h4HPWnv3-14" target="eBipc3pvbKF5h4HPWnv3-5">
          <mxGeometry relative="1" as="geometry">
            <mxPoint x="230" y="390" as="sourcePoint" />
            <mxPoint x="426" y="427" as="targetPoint" />
          </mxGeometry>
        </mxCell>
        <mxCell id="eBipc3pvbKF5h4HPWnv3-19" style="rounded=0;orthogonalLoop=1;jettySize=auto;html=1;entryX=0.28;entryY=0.99;entryDx=0;entryDy=0;entryPerimeter=0;endArrow=none;startFill=0;exitX=0.9;exitY=0.2;exitDx=0;exitDy=0;exitPerimeter=0;" edge="1" parent="1" source="eBipc3pvbKF5h4HPWnv3-16" target="eBipc3pvbKF5h4HPWnv3-5">
          <mxGeometry relative="1" as="geometry">
            <mxPoint x="240" y="460" as="sourcePoint" />
            <mxPoint x="436" y="497" as="targetPoint" />
          </mxGeometry>
        </mxCell>
        <mxCell id="eBipc3pvbKF5h4HPWnv3-20" value="haproxy&lt;div&gt;SNI-based TLS routing&lt;/div&gt;&lt;div&gt;https://kube.example.com&lt;/div&gt;" style="verticalLabelPosition=bottom;sketch=0;aspect=fixed;html=1;verticalAlign=top;strokeColor=none;align=center;outlineConnect=0;shape=mxgraph.citrix.proxy_server;" vertex="1" parent="1">
          <mxGeometry x="530" y="280" width="51" height="60" as="geometry" />
        </mxCell>
        <mxCell id="eBipc3pvbKF5h4HPWnv3-21" style="edgeStyle=orthogonalEdgeStyle;rounded=0;orthogonalLoop=1;jettySize=auto;html=1;entryX=0.995;entryY=0.63;entryDx=0;entryDy=0;entryPerimeter=0;" edge="1" parent="1" source="eBipc3pvbKF5h4HPWnv3-20" target="eBipc3pvbKF5h4HPWnv3-1">
          <mxGeometry relative="1" as="geometry">
            <Array as="points">
              <mxPoint x="550" y="149" />
            </Array>
          </mxGeometry>
        </mxCell>
        <mxCell id="eBipc3pvbKF5h4HPWnv3-22" style="edgeStyle=orthogonalEdgeStyle;rounded=0;orthogonalLoop=1;jettySize=auto;html=1;entryX=0.995;entryY=0.63;entryDx=0;entryDy=0;entryPerimeter=0;" edge="1" parent="1" source="eBipc3pvbKF5h4HPWnv3-20" target="eBipc3pvbKF5h4HPWnv3-3">
          <mxGeometry relative="1" as="geometry">
            <Array as="points">
              <mxPoint x="540" y="209" />
            </Array>
          </mxGeometry>
        </mxCell>
        <mxCell id="eBipc3pvbKF5h4HPWnv3-23" style="edgeStyle=orthogonalEdgeStyle;rounded=0;orthogonalLoop=1;jettySize=auto;html=1;entryX=0.86;entryY=0.433;entryDx=0;entryDy=0;entryPerimeter=0;" edge="1" parent="1" source="eBipc3pvbKF5h4HPWnv3-20" target="eBipc3pvbKF5h4HPWnv3-5">
          <mxGeometry relative="1" as="geometry">
            <Array as="points">
              <mxPoint x="540" y="413" />
            </Array>
          </mxGeometry>
        </mxCell>
        <mxCell id="eBipc3pvbKF5h4HPWnv3-28" style="rounded=0;orthogonalLoop=1;jettySize=auto;html=1;" edge="1" parent="1" source="eBipc3pvbKF5h4HPWnv3-24" target="eBipc3pvbKF5h4HPWnv3-20">
          <mxGeometry relative="1" as="geometry" />
        </mxCell>
        <mxCell id="eBipc3pvbKF5h4HPWnv3-24" value="" style="html=1;verticalLabelPosition=bottom;align=center;labelBackgroundColor=#ffffff;verticalAlign=top;strokeWidth=2;strokeColor=#0080F0;shadow=0;dashed=0;shape=mxgraph.ios7.icons.user;" vertex="1" parent="1">
          <mxGeometry x="730" y="245" width="30" height="30" as="geometry" />
        </mxCell>
        <mxCell id="eBipc3pvbKF5h4HPWnv3-29" style="edgeStyle=orthogonalEdgeStyle;rounded=0;orthogonalLoop=1;jettySize=auto;html=1;" edge="1" parent="1" source="eBipc3pvbKF5h4HPWnv3-25" target="eBipc3pvbKF5h4HPWnv3-20">
          <mxGeometry relative="1" as="geometry" />
        </mxCell>
        <mxCell id="eBipc3pvbKF5h4HPWnv3-25" value="" style="html=1;verticalLabelPosition=bottom;align=center;labelBackgroundColor=#ffffff;verticalAlign=top;strokeWidth=2;strokeColor=#0080F0;shadow=0;dashed=0;shape=mxgraph.ios7.icons.user;" vertex="1" parent="1">
          <mxGeometry x="730" y="295" width="30" height="30" as="geometry" />
        </mxCell>
        <mxCell id="eBipc3pvbKF5h4HPWnv3-30" style="rounded=0;orthogonalLoop=1;jettySize=auto;html=1;" edge="1" parent="1" source="eBipc3pvbKF5h4HPWnv3-26" target="eBipc3pvbKF5h4HPWnv3-20">
          <mxGeometry relative="1" as="geometry" />
        </mxCell>
        <mxCell id="eBipc3pvbKF5h4HPWnv3-26" value="" style="html=1;verticalLabelPosition=bottom;align=center;labelBackgroundColor=#ffffff;verticalAlign=top;strokeWidth=2;strokeColor=#0080F0;shadow=0;dashed=0;shape=mxgraph.ios7.icons.user;" vertex="1" parent="1">
          <mxGeometry x="730" y="345" width="30" height="30" as="geometry" />
        </mxCell>
      </root>
    </mxGraphModel>
  </diagram>
</mxfile>
